<svg xmlns="http://www.w3.org/2000/svg" style="display:none">
  <symbol id="icon-heart" viewBox="0 0 24 24">
    <path
      d="M12 21s-6.7-4.35-9.4-8.14C.5 9.8 1 5.95 4.1 4.13c2.1-1.25 4.5-.72 5.9.9 1.4-1.62 3.8-2.15 5.9-.9 3.1 1.82 3.6 5.67 1.5 8.73C18.7 16.65 12 21 12 21z"
      fill="currentColor"
    />
  </symbol>
  <symbol id="icon-trophy" viewBox="0 0 24 24">
    <path
      d="M7 2h10v3h3v3c0 2.8-2.2 5-5 5h-.2A5 5 0 0113 16v2h4v3H7v-3h4v-2a5 5 0 01-1.8-3H9c-2.8 0-5-2.2-5-5V5h3V2zm-1 5v1c0 1.7 1.3 3 3 3h.1V7H6zm9 4.1h.1c1.7 0 3-1.3 3-3V7h-3v4.1z"
      fill="currentColor"
    />
  </symbol>
  <symbol id="icon-compare" viewBox="0 0 24 24">
    <path
      d="M5 3h4v18H5V3zm10 0h4v18h-4V3zM10 8h4v2h-4V8zm0 6h4v2h-4v-2z"
      fill="currentColor"
    />
  </symbol>
</svg>
